<?xml version="1.0" encoding="UTF-8" standalone="no"?>
<svg
   version="1.1"
   id="svg229"
   width="381.60699"
   height="370"
   xmlns="http://www.w3.org/2000/svg"
   xmlns:svg="http://www.w3.org/2000/svg"
   xmlns:rdf="http://www.w3.org/1999/02/22-rdf-syntax-ns#"
   xmlns:cc="http://creativecommons.org/ns#"
   xmlns:dc="http://purl.org/dc/elements/1.1/">
  <metadata
     id="metadata235">
    <rdf:RDF>
      <cc:Work
         rdf:about="">
        <dc:format>image/svg+xml</dc:format>
        <dc:type
           rdf:resource="http://purl.org/dc/dcmitype/StillImage" />
      </cc:Work>
    </rdf:RDF>
  </metadata>
  <defs
     id="defs233" />
  <g
     id="cvpage2_top"
     width="310px"
     height="370px"
     transform="translate(44.484001)">
    <rect
       x="0"
       y="0"
       width="310"
       height="370"
       id="rect2"
       style="fill:#ffffff;stroke:none" />
    <path
       d="m 159.216,140.558 c 21.35,-13.338 27.944,-41.887 14.606,-63.236 -3.851,-6.165 -8.426,-10.742 -14.589,-14.596 0,0 18.36,-17.057 18.36,-17.057 11.048,14.529 35.596,23.562 64.031,23.562 0,0 -0.149,0 -0.149,0 28.435,0 52.984,-9.033 64.031,-23.562 0,0 18.36,17.057 18.36,17.057 -6.163,3.854 -10.738,8.431 -14.589,14.596 -13.338,21.349 -6.744,49.898 14.606,63.236 0,0 -17.131,18.501 -17.131,18.501 -10.159,-15.431 -35.652,-25.32 -65.277,-25.32 0,0 0.149,0 0.149,0 -29.624,0 -55.118,9.889 -65.276,25.32 0,0 -17.132,-18.501 -17.132,-18.501"
       id="path4"
       style="fill:#ffc8c8;fill-rule:evenodd;stroke:none" />
    <g
       id="g1100_LA_WALL" />
    <path
       d="m 209.201,202.413 c 0,0 15.037,25.907 15.037,25.907 0,0 0.162,0.299 0.162,0.299 4.885,-2.849 10.548,-4.486 16.563,-4.486 6.073,0 11.787,1.669 16.705,4.569 0,0 0.033,0.023 0.033,0.023 0,0 14.797,-26.453 14.797,-26.453 0,0 -0.102,-0.114 -0.102,-0.114 -9.292,-5.349 -20.033,-8.418 -31.433,-8.418 -11.56,0 -22.442,3.156 -31.823,8.645 0,0 0.061,0.028 0.061,0.028"
       id="path14"
       style="fill:#ffc8c8;fill-rule:evenodd;stroke:none" />
    <path
       d="m 272.847,202.395 c -9.386,-5.495 -20.274,-8.655 -31.841,-8.655 -11.515,0 -22.357,3.131 -31.713,8.58 0,0 -0.094,-0.124 -0.094,-0.124 0,0 -15.539,-27.05 -15.539,-27.05 0,0 -0.025,-0.106 -0.025,-0.106 13.98,-8.128 30.174,-12.797 47.371,-12.797 17.175,0 33.349,4.657 47.317,12.766 0,0 -0.085,0.168 -0.085,0.168 0,0 -15.312,27.062 -15.312,27.062 0,0 -0.079,0.156 -0.079,0.156"
       id="path16"
       style="fill:#ffc8c8;fill-rule:evenodd;stroke:none" />
    <path
       d="m 209.201,312.055 c 0,0 15.037,-25.906 15.037,-25.906 0,0 0.162,-0.3 0.162,-0.3 4.885,2.849 10.548,4.487 16.563,4.487 6.073,0 11.787,-1.67 16.705,-4.57 0,0 0.033,-0.023 0.033,-0.023 0,0 14.797,26.453 14.797,26.453 0,0 -0.102,0.114 -0.102,0.114 -9.292,5.349 -20.033,8.418 -31.433,8.418 -11.56,0 -22.442,-3.155 -31.823,-8.644 0,0 0.061,-0.029 0.061,-0.029"
       id="path18"
       style="fill:#ffc8c8;fill-rule:evenodd;stroke:none" />
    <path
       d="m 272.847,312.073 c -9.386,5.496 -20.274,8.655 -31.841,8.655 -11.515,0 -22.357,-3.131 -31.713,-8.58 0,0 -0.094,0.124 -0.094,0.124 0,0 -15.539,27.051 -15.539,27.051 0,0 -0.025,0.105 -0.025,0.105 13.98,8.129 30.174,12.797 47.371,12.797 17.175,0 33.349,-4.656 47.317,-12.765 0,0 -0.085,-0.169 -0.085,-0.169 0,0 -15.312,-27.062 -15.312,-27.062 0,0 -0.079,-0.156 -0.079,-0.156"
       id="path20"
       style="fill:#ffc8c8;fill-rule:evenodd;stroke:none" />
    <path
       d="m 217.481,234.09 c 0,0 23.599,23.283 23.599,23.283 0,0 23.369,-23.513 23.369,-23.513 -0.03,-0.03 -0.056,-0.056 -0.087,-0.086 -12.945,-12.772 -34.11,-12.629 -46.881,0.316"
       id="path22"
       style="fill:#ffc8c8;fill-rule:evenodd;stroke:none" />
    <path
       d="m 264.448,233.858 c 0,0 -23.368,23.515 -23.368,23.515 0,0 23.17,23.709 23.17,23.709 0.121,-0.119 0.225,-0.221 0.344,-0.341 12.818,-12.899 12.752,-34.064 -0.146,-46.883"
       id="path24"
       style="fill:#ffc8c8;fill-rule:evenodd;stroke:none" />
    <path
       d="m 264.377,280.957 c 0,0 -23.297,-23.584 -23.297,-23.584 0,0 -23.311,23.57 -23.311,23.57 12.833,12.692 33.767,12.699 46.608,0.014"
       id="path26"
       style="fill:#ffc8c8;fill-rule:evenodd;stroke:none" />
    <path
       d="m 217.572,280.747 c 0,0 23.508,-23.374 23.508,-23.374 0,0 -23.47,-23.414 -23.47,-23.414 -12.81,12.841 -12.827,33.926 -0.038,46.788"
       id="path28"
       style="fill:#fff0f0;fill-rule:evenodd;stroke:none" />
    <path
       d="m 272.555,202.297 c 0,0 -14.912,25.979 -14.912,25.979 0,0 -0.179,0.289 -0.179,0.289 4.912,2.806 9.162,6.891 12.17,12.099 3.038,5.259 4.451,11.042 4.399,16.751 0,0 -0.004,0.04 -0.004,0.04 0,0 30.308,-0.418 30.308,-0.418 0,0 0.048,-0.145 0.048,-0.145 -0.016,-10.723 -2.731,-21.558 -8.433,-31.429 -5.782,-10.011 -13.957,-17.855 -23.403,-23.233 0,0 0.006,0.067 0.006,0.067"
       id="path30"
       style="fill:#ffc8c8;fill-rule:evenodd;stroke:none" />
    <path
       d="m 304.405,257.401 c 0.064,-10.877 -2.646,-21.885 -8.432,-31.901 -5.759,-9.971 -13.893,-17.793 -23.291,-23.17 0,0 0.06,-0.144 0.06,-0.144 0,0 15.652,-26.985 15.652,-26.985 0,0 0.078,-0.075 0.078,-0.075 14.031,8.041 26.174,19.728 34.775,34.619 8.591,14.873 12.648,31.207 12.613,47.358 0,0 -0.188,0.011 -0.188,0.011 0,0 -31.093,0.277 -31.093,0.277 0,0 -0.174,0.01 -0.174,0.01"
       id="path32"
       style="fill:#ffc8c8;fill-rule:evenodd;stroke:none" />
    <path
       d="m 177.613,257.137 c 0,0 29.955,0.063 29.955,0.063 0,0 0.34,-0.01 0.34,-0.01 -0.024,5.656 1.391,11.379 4.4,16.587 3.037,5.259 7.341,9.372 12.312,12.18 0,0 0.036,0.017 0.036,0.017 0,0 -15.505,26.044 -15.505,26.044 0,0 -0.149,-0.031 -0.149,-0.031 -9.281,-5.371 -17.31,-13.137 -23.012,-23.008 -5.782,-10.011 -8.492,-21.012 -8.432,-31.881 0,0 0.055,0.039 0.055,0.039"
       id="path34"
       style="fill:#fff0f0;fill-rule:evenodd;stroke:none" />
    <path
       d="m 209.432,312.259 c -9.453,-5.379 -17.635,-13.227 -23.42,-23.243 -5.76,-9.971 -8.472,-20.925 -8.433,-31.753 0,0 -0.155,-0.019 -0.155,-0.019 0,0 -31.195,0.075 -31.195,0.075 0,0 -0.104,0.03 -0.104,0.03 -0.046,16.172 4.011,32.529 12.612,47.421 8.591,14.872 20.713,26.548 34.721,34.588 0,0 0.103,-0.158 0.103,-0.158 0,0 15.776,-26.795 15.776,-26.795 0,0 0.095,-0.146 0.095,-0.146"
       id="path36"
       style="fill:#fff0f0;fill-rule:evenodd;stroke:none" />
    <path
       d="m 304.344,257.366 c 0,0 -29.954,-0.045 -29.954,-0.045 0,0 -0.341,-0.011 -0.341,-0.011 0.004,5.656 -1.432,11.373 -4.459,16.57 -3.057,5.248 -7.375,9.346 -12.356,12.136 0,0 -0.037,0.016 -0.037,0.016 0,0 15.412,26.1 15.412,26.1 0,0 0.149,-0.03 0.149,-0.03 9.3,-5.338 17.357,-13.074 23.094,-22.925 5.819,-9.99 8.569,-20.981 8.547,-31.85 0,0 -0.055,0.039 -0.055,0.039"
       id="path38"
       style="fill:#ffc8c8;fill-rule:evenodd;stroke:none" />
    <path
       d="m 272.327,312.372 c 9.472,-5.344 17.682,-13.163 23.504,-23.158 5.795,-9.95 8.547,-20.894 8.547,-31.722 0,0 0.155,-0.019 0.155,-0.019 0,0 31.195,0.187 31.195,0.187 0,0 0.104,0.031 0.104,0.031 -0.013,16.172 -4.128,32.515 -12.784,47.375 -8.644,14.841 -20.808,26.474 -34.845,34.463 0,0 -0.103,-0.158 -0.103,-0.158 0,0 -15.678,-26.852 -15.678,-26.852 0,0 -0.095,-0.147 -0.095,-0.147"
       id="path40"
       style="fill:#ffc8c8;fill-rule:evenodd;stroke:none" />
    <path
       d="m 209.6,202.183 c 0,0 14.819,26.033 14.819,26.033 0,0 0.177,0.29 0.177,0.29 -4.921,2.788 -9.186,6.857 -12.213,12.055 -3.056,5.248 -4.49,11.025 -4.459,16.735 0,0 0.004,0.04 0.004,0.04 0,0 -30.306,-0.528 -30.306,-0.528 0,0 -0.047,-0.145 -0.047,-0.145 0.054,-10.722 2.808,-21.547 8.546,-31.398 5.818,-9.99 14.021,-17.805 23.486,-23.149 0,0 -0.007,0.067 -0.007,0.067"
       id="path42"
       style="fill:#fff0f0;fill-rule:evenodd;stroke:none" />
    <path
       d="m 177.552,257.172 c -0.025,-10.876 2.725,-21.875 8.547,-31.87 5.796,-9.951 13.957,-17.743 23.375,-23.086 0,0 -0.06,-0.144 -0.06,-0.144 0,0 -15.554,-27.041 -15.554,-27.041 0,0 -0.078,-0.075 -0.078,-0.075 -14.061,7.989 -26.245,19.633 -34.9,34.493 -8.644,14.841 -12.761,31.161 -12.784,47.312 0,0 0.188,0.012 0.188,0.012 0,0 31.092,0.388 31.092,0.388 0,0 0.174,0.011 0.174,0.011"
       id="path44"
       style="fill:#fff0f0;fill-rule:evenodd;stroke:none" />
    <circle
       cx="241.078"
       cy="257.37701"
       r="95.044998"
       stroke-miterlimit="14.336"
       id="circle46"
       style="fill:none;stroke:#000000;stroke-width:2px;stroke-miterlimit:14.336" />
    <circle
       cx="241.078"
       cy="257.37701"
       r="63.547001"
       stroke-miterlimit="14.336"
       id="circle48"
       style="fill:none;stroke:#000000;stroke-width:2px;stroke-miterlimit:14.336" />
    <line
       x1="273.979"
       y1="257.37701"
       x2="336.12299"
       y2="257.37701"
       stroke-miterlimit="14.336"
       id="line50"
       style="fill:none;stroke:#000000;stroke-width:2px;stroke-miterlimit:14.336" />
    <line
       x1="224.896"
       y1="229.349"
       x2="193.556"
       y2="175.06599"
       stroke-miterlimit="14.336"
       id="line52"
       style="fill:none;stroke:#000000;stroke-width:2px;stroke-miterlimit:14.336" />
    <line
       x1="257.229"
       y1="229.40401"
       x2="288.60101"
       y2="175.06599"
       stroke-miterlimit="14.336"
       id="line54"
       style="fill:none;stroke:#000000;stroke-width:2px;stroke-miterlimit:14.336" />
    <circle
       cx="241.078"
       cy="257.37701"
       r="33.154999"
       stroke-miterlimit="14.336"
       id="circle56"
       style="fill:none;stroke:#000000;stroke-width:2px;stroke-miterlimit:14.336" />
    <line
       x1="217.317"
       y1="233.616"
       x2="264.83899"
       y2="281.138"
       stroke-miterlimit="14.336"
       id="line58"
       style="fill:none;stroke:#000000;stroke-width:2px;stroke-miterlimit:14.336" />
    <line
       x1="264.83899"
       y1="233.616"
       x2="217.317"
       y2="281.138"
       stroke-miterlimit="14.336"
       id="line60"
       style="fill:none;stroke:#000000;stroke-width:2px;stroke-miterlimit:14.336" />
    <line
       x1="193.556"
       y1="339.68799"
       x2="224.15401"
       y2="286.69101"
       stroke-miterlimit="14.336"
       id="line62"
       style="fill:none;stroke:#000000;stroke-width:2px;stroke-miterlimit:14.336" />
    <line
       x1="288.60101"
       y1="339.68799"
       x2="257.49301"
       y2="285.80801"
       stroke-miterlimit="14.336"
       id="line64"
       style="fill:none;stroke:#000000;stroke-width:2px;stroke-miterlimit:14.336" />
    <line
       x1="146.033"
       y1="257.37701"
       x2="208.479"
       y2="257.37701"
       stroke-miterlimit="14.336"
       id="line66"
       style="fill:none;stroke:#000000;stroke-width:2px;stroke-miterlimit:14.336" />
    <text
       transform="matrix(-0.673,0.74,-0.74,-0.673,766.73,315.622)"
       x="311.33899"
       y="327.33899"
       font-size="16px"
       id="text68"
       style="font-size:16px;font-family:Arial, sans-serif;fill:#000000" />
    <text
       transform="matrix(-0.74,0.673,-0.673,-0.74,762.366,366.05)"
       x="308.146"
       y="330.474"
       font-size="16px"
       id="text70"
       style="font-size:16px;font-family:Arial, sans-serif;fill:#000000" />
    <text
       transform="matrix(-0.74,0.673,-0.673,-0.74,758.629,373.525)"
       x="304.832"
       y="333.48801"
       font-size="16px"
       id="text72"
       style="font-size:16px;font-family:Arial, sans-serif;fill:#000000" />
    <text
       transform="rotate(143.1301,303.63067,336.37967)"
       x="301.401"
       y="336.36099"
       font-size="16px"
       id="text74"
       style="font-size:16px;font-family:Arial, sans-serif;fill:#000000" />
    <text
       transform="rotate(143.1301,300.046,339.067)"
       x="297.81699"
       y="339.04901"
       font-size="16px"
       id="text76"
       style="font-size:16px;font-family:Arial, sans-serif;fill:#000000" />
    <text
       transform="matrix(-0.841,0.541,-0.541,-0.841,730.602,468.5)"
       x="294.18201"
       y="341.664"
       font-size="16px"
       id="text78"
       style="font-size:16px;font-family:Arial, sans-serif;fill:#000000" />
    <text
       transform="matrix(-0.866,0.5,-0.5,-0.866,718.154,495.528)"
       x="290.39499"
       y="344.05701"
       font-size="16px"
       id="text80"
       style="font-size:16px;font-family:Arial, sans-serif;fill:#000000" />
    <text
       transform="matrix(-0.889,0.458,-0.458,-0.889,704.03,521.858)"
       x="286.50699"
       y="346.28201"
       font-size="16px"
       id="text82"
       style="font-size:16px;font-family:Arial, sans-serif;fill:#000000" />
    <text
       transform="matrix(-0.889,0.458,-0.458,-0.889,697.446,527.558)"
       x="282.52499"
       y="348.33401"
       font-size="16px"
       id="text84"
       style="font-size:16px;font-family:Arial, sans-serif;fill:#000000" />
    <text
       transform="matrix(-0.91,0.414,-0.414,-0.91,681.24,552.622)"
       x="278.448"
       y="350.19199"
       font-size="16px"
       id="text86"
       style="font-size:16px;font-family:Arial, sans-serif;fill:#000000" />
    <text
       transform="matrix(-0.929,0.369,-0.369,-0.929,663.463,576.739)"
       x="274.29401"
       y="351.867"
       font-size="16px"
       id="text88"
       style="font-size:16px;font-family:Arial, sans-serif;fill:#000000" />
    <text
       transform="matrix(-0.946,0.323,-0.323,-0.946,644.169,599.799)"
       x="270.07001"
       y="353.35599"
       font-size="16px"
       id="text90"
       style="font-size:16px;font-family:Arial, sans-serif;fill:#000000" />
    <text
       transform="matrix(-0.961,0.276,-0.276,-0.961,623.423,621.696)"
       x="265.784"
       y="354.65701"
       font-size="16px"
       id="text92"
       style="font-size:16px;font-family:Arial, sans-serif;fill:#000000" />
    <text
       transform="matrix(-0.974,0.227,-0.227,-0.974,601.301,642.322)"
       x="261.44501"
       y="355.76599"
       font-size="16px"
       id="text94"
       style="font-size:16px;font-family:Arial, sans-serif;fill:#000000" />
    <text
       transform="matrix(-0.984,0.178,-0.178,-0.984,577.893,661.571)"
       x="257.061"
       y="356.68201"
       font-size="16px"
       id="text96"
       style="font-size:16px;font-family:Arial, sans-serif;fill:#000000" />
    <text
       transform="matrix(-0.992,0.128,-0.128,-0.992,553.302,679.341)"
       x="252.64"
       y="357.40201"
       font-size="16px"
       id="text98"
       style="font-size:16px;font-family:Arial, sans-serif;fill:#000000" />
    <text
       transform="matrix(-0.997,0.077,-0.077,-0.997,527.644,695.539)"
       x="248.192"
       y="357.927"
       font-size="16px"
       id="text100"
       style="font-size:16px;font-family:Arial, sans-serif;fill:#000000" />
    <text
       transform="matrix(-1,0.026,-0.026,-1,501.051,710.078)"
       x="243.72501"
       y="358.25699"
       font-size="16px"
       id="text102"
       style="font-size:16px;font-family:Arial, sans-serif;fill:#000000" />
    <text
       transform="matrix(-1,0.026,-0.026,-1,492.098,710.423)"
       x="239.246"
       y="358.37201"
       font-size="16px"
       id="text104"
       style="font-size:16px;font-family:Arial, sans-serif;fill:#000000" />
    <text
       transform="matrix(-1,-0.026,0.026,-1,464.762,722.508)"
       x="234.76801"
       y="358.27802"
       font-size="16px"
       id="text106"
       style="font-size:16px;font-family:Arial, sans-serif;fill:#000000" />
    <text
       transform="matrix(-0.997,-0.077,0.077,-0.997,436.891,732.784)"
       x="230.298"
       y="357.98999"
       font-size="16px"
       id="text108"
       style="font-size:16px;font-family:Arial, sans-serif;fill:#000000" />
    <text
       transform="matrix(-0.992,-0.128,0.128,-0.992,408.695,741.191)"
       x="225.845"
       y="357.50601"
       font-size="16px"
       id="text110"
       style="font-size:16px;font-family:Arial, sans-serif;fill:#000000" />
    <text
       transform="matrix(-0.984,-0.178,0.178,-0.984,380.334,747.725)"
       x="221.41901"
       y="356.827"
       font-size="16px"
       id="text112"
       style="font-size:16px;font-family:Arial, sans-serif;fill:#000000" />
    <text
       transform="matrix(-0.974,-0.227,0.227,-0.974,351.961,752.4)"
       x="217.02699"
       y="355.952"
       font-size="16px"
       id="text114"
       style="font-size:16px;font-family:Arial, sans-serif;fill:#000000" />
    <text
       transform="matrix(-0.961,-0.276,0.276,-0.961,323.719,755.248)"
       x="212.677"
       y="354.88199"
       font-size="16px"
       id="text116"
       style="font-size:16px;font-family:Arial, sans-serif;fill:#000000" />
    <text
       transform="matrix(-0.946,-0.323,0.323,-0.946,295.742,756.313)"
       x="208.379"
       y="353.62"
       font-size="16px"
       id="text118"
       style="font-size:16px;font-family:Arial, sans-serif;fill:#000000" />
    <text
       transform="matrix(-0.929,-0.369,0.369,-0.929,268.151,755.653)"
       x="204.14101"
       y="352.168"
       font-size="16px"
       id="text120"
       style="font-size:16px;font-family:Arial, sans-serif;fill:#000000" />
    <text
       transform="matrix(-0.929,-0.369,0.369,-0.929,260.729,750.924)"
       x="199.978"
       y="350.51401"
       font-size="16px"
       id="text122"
       style="font-size:16px;font-family:Arial, sans-serif;fill:#000000" />
    <text
       transform="matrix(-0.91,-0.414,0.414,-0.91,234.036,748.1)"
       x="195.89301"
       y="348.67401"
       font-size="16px"
       id="text124"
       style="font-size:16px;font-family:Arial, sans-serif;fill:#000000" />
    <text
       transform="matrix(-0.889,-0.458,0.458,-0.889,207.968,743.729)"
       x="191.894"
       y="346.65601"
       font-size="16px"
       id="text126"
       style="font-size:16px;font-family:Arial, sans-serif;fill:#000000" />
    <text
       transform="matrix(-0.866,-0.5,0.5,-0.866,182.609,737.892)"
       x="187.98801"
       y="344.465"
       font-size="16px"
       id="text128"
       style="font-size:16px;font-family:Arial, sans-serif;fill:#000000" />
    <text
       transform="matrix(-0.841,-0.541,0.541,-0.841,158.026,730.67)"
       x="184.181"
       y="342.10501"
       font-size="16px"
       id="text130"
       style="font-size:16px;font-family:Arial, sans-serif;fill:#000000" />
    <text
       transform="rotate(-143.1301,182.786,339.533)"
       x="180.513"
       y="339.539"
       font-size="16px"
       id="text132"
       style="font-size:16px;font-family:Arial, sans-serif;fill:#000000" />
    <text
       transform="rotate(-143.1301,179.20133,336.84567)"
       x="176.92799"
       y="336.85101"
       font-size="16px"
       id="text134"
       style="font-size:16px;font-family:Arial, sans-serif;fill:#000000" />
    <text
       transform="matrix(-0.74,-0.673,0.673,-0.74,80.884,699.358)"
       x="173.448"
       y="334.03699"
       font-size="16px"
       id="text136"
       style="font-size:16px;font-family:Arial, sans-serif;fill:#000000" />
    <text
       transform="matrix(-0.74,-0.673,0.673,-0.74,77.147,691.884)"
       x="170.134"
       y="331.02301"
       font-size="16px"
       id="text138"
       style="font-size:16px;font-family:Arial, sans-serif;fill:#000000" />
    <text
       transform="matrix(-0.673,-0.74,0.74,-0.673,40.355,673.728)"
       x="166.886"
       y="327.94199"
       font-size="16px"
       id="text140"
       style="font-size:16px;font-family:Arial, sans-serif;fill:#000000" />
    <text
       transform="matrix(-0.673,-0.74,0.74,-0.673,37.763,665.954)"
       x="163.871"
       y="324.62799"
       font-size="16px"
       id="text142"
       style="font-size:16px;font-family:Arial, sans-serif;fill:#000000" />
    <text
       transform="rotate(-126.8699,163.09275,321.3005)"
       x="160.87399"
       y="321.29999"
       font-size="16px"
       id="text144"
       style="font-size:16px;font-family:Arial, sans-serif;fill:#000000" />
    <text
       transform="rotate(-126.8699,160.405,317.71625)"
       x="158.186"
       y="317.716"
       font-size="16px"
       id="text146"
       style="font-size:16px;font-family:Arial, sans-serif;fill:#000000" />
    <text
       transform="rotate(-126.8699,157.71775,314.13175)"
       x="155.49899"
       y="314.13199"
       font-size="16px"
       id="text148"
       style="font-size:16px;font-family:Arial, sans-serif;fill:#000000" />
    <text
       transform="matrix(-0.541,-0.841,0.841,-0.541,-21.647,608.957)"
       x="153.047"
       y="310.383"
       font-size="16px"
       id="text150"
       style="font-size:16px;font-family:Arial, sans-serif;fill:#000000" />
    <text
       transform="matrix(-0.5,-0.866,0.866,-0.5,-35.838,592.373)"
       x="150.76801"
       y="306.52701"
       font-size="16px"
       id="text152"
       style="font-size:16px;font-family:Arial, sans-serif;fill:#000000" />
    <text
       transform="matrix(-0.458,-0.889,0.889,-0.458,-48.964,575.297)"
       x="148.66"
       y="302.57501"
       font-size="16px"
       id="text154"
       style="font-size:16px;font-family:Arial, sans-serif;fill:#000000" />
    <text
       transform="matrix(-0.414,-0.91,0.91,-0.414,-61.026,557.797)"
       x="146.728"
       y="298.535"
       font-size="16px"
       id="text156"
       style="font-size:16px;font-family:Arial, sans-serif;fill:#000000" />
    <text
       transform="matrix(-0.369,-0.929,0.929,-0.369,-72.024,539.944)"
       x="144.976"
       y="294.41299"
       font-size="16px"
       id="text158"
       style="font-size:16px;font-family:Arial, sans-serif;fill:#000000" />
    <text
       transform="matrix(-0.323,-0.946,0.946,-0.323,-81.963,521.806)"
       x="143.408"
       y="290.21799"
       font-size="16px"
       id="text160"
       style="font-size:16px;font-family:Arial, sans-serif;fill:#000000" />
    <text
       transform="matrix(-0.276,-0.961,0.961,-0.276,-90.851,503.453)"
       x="142.02699"
       y="285.957"
       font-size="16px"
       id="text162"
       style="font-size:16px;font-family:Arial, sans-serif;fill:#000000" />
    <text
       transform="matrix(-0.227,-0.974,0.974,-0.227,-97.198,481.783)"
       x="138.08701"
       y="279.45801"
       font-size="16px"
       id="text164"
       style="font-size:16px;font-family:Arial, sans-serif;fill:#000000">s</text>
    <text
       transform="matrix(-0.128,-0.992,0.992,-0.128,-109.45,445.021)"
       x="136.504"
       y="270.64401"
       font-size="16px"
       id="text166"
       style="font-size:16px;font-family:Arial, sans-serif;fill:#000000">e</text>
    <text
       transform="matrix(-0.026,-1,1,-0.026,-117.466,408.16)"
       x="135.29401"
       y="261.32401"
       font-size="16px"
       id="text168"
       style="font-size:16px;font-family:Arial, sans-serif;fill:#000000">p</text>
    <text
       transform="matrix(0.026,-1,1,0.026,-117.151,387.42)"
       x="137.524"
       y="253.80701"
       font-size="16px"
       id="text170"
       style="font-size:16px;font-family:Arial, sans-serif;fill:#000000">t</text>
    <text
       transform="matrix(0.128,-0.992,0.992,0.128,-121.548,354.43)"
       x="135.821"
       y="246.30901"
       font-size="16px"
       id="text172"
       style="font-size:16px;font-family:Arial, sans-serif;fill:#000000">u</text>
    <text
       transform="matrix(0.227,-0.974,0.974,0.227,-118.036,320.255)"
       x="135.634"
       y="234.495"
       font-size="16px"
       id="text174"
       style="font-size:16px;font-family:Arial, sans-serif;fill:#000000">m</text>
    <path
       d="m 93.298,320.576 c 0,0 -0.09,-29.911 -0.09,-29.911 0,0 0.013,-0.34 0.013,-0.34 -7.341,0.025 -14.769,-1.386 -21.53,-4.389 -6.827,-3.032 -12.167,-7.329 -15.813,-12.292 0,0 -0.022,-0.036 -0.022,-0.036 0,0 -33.801,15.487 -33.801,15.487 0,0 0.04,0.15 0.04,0.15 6.974,9.265 17.056,17.281 29.871,22.972 12.995,5.772 27.275,8.476 41.383,8.414 0,0 -0.051,-0.055 -0.051,-0.055"
       id="path176"
       style="fill:#d7eef4;fill-rule:evenodd;stroke:none" />
    <path
       d="m 21.742,288.815 c 6.984,9.438 17.173,17.606 30.176,23.381 12.944,5.749 27.162,8.455 41.217,8.414 0,0 0.025,0.154 0.025,0.154 0,0 -0.089,31.15 -0.089,31.15 0,0 -0.04,0.104 -0.04,0.104 -20.991,0.049 -42.223,-3.998 -61.555,-12.584 -19.306,-8.575 -34.465,-20.677 -44.904,-34.663 0,0 0.204,-0.103 0.204,-0.103 0,0 34.777,-15.758 34.777,-15.758 0,0 0.189,-0.095 0.189,-0.095"
       id="path178"
       style="fill:#d7eef4;fill-rule:evenodd;stroke:none" />
    <path
       d="m 93.738,224.276 c 0,0 -0.786,33.097 -0.786,33.097 0,0 0.347,33.101 0.347,33.101 -0.396,0.002 -0.737,0.001 -1.133,-0.005 -23.599,-0.331 -42.667,-15.546 -42.236,-33.701 0.431,-18.155 20.209,-32.824 43.808,-32.492"
       id="path180"
       style="fill:#d7eef4;fill-rule:evenodd;stroke:none" />
    <path
       d="m 93.315,194.031 c 0,0 -0.098,29.91 -0.098,29.91 0,0 0.013,0.34 0.013,0.34 -7.341,-0.026 -14.77,1.385 -21.532,4.387 -6.827,3.031 -12.169,7.326 -15.815,12.289 0,0 -0.023,0.036 -0.023,0.036 0,0 -33.797,-15.493 -33.797,-15.493 0,0 0.041,-0.149 0.041,-0.149 6.976,-9.264 17.06,-17.278 29.876,-22.968 12.997,-5.77 27.277,-8.472 41.386,-8.407 0,0 -0.051,0.055 -0.051,0.055"
       id="path182"
       style="fill:#d7eef4;fill-rule:evenodd;stroke:none" />
    <path
       d="m 21.75,225.781 c 6.987,-9.437 17.178,-17.604 30.182,-23.377 12.946,-5.747 27.165,-8.45 41.219,-8.407 0,0 0.026,-0.155 0.026,-0.155 0,0 -0.081,-31.149 -0.081,-31.149 0,0 -0.04,-0.104 -0.04,-0.104 -20.99,-0.053 -42.224,3.992 -61.558,12.575 -19.309,8.571 -34.471,20.671 -44.913,34.655 0,0 0.204,0.104 0.204,0.104 0,0 34.772,15.762 34.772,15.762 0,0 0.189,0.096 0.189,0.096"
       id="path184"
       style="fill:#d7eef4;fill-rule:evenodd;stroke:none" />
    <path
       d="m 21.841,225.781 c 0,0 33.701,14.916 33.701,14.916 0,0 0.39,0.161 0.39,0.161 -3.674,4.889 -5.771,10.55 -5.741,16.556 0.03,6.064 2.224,11.763 6.014,16.663 0,0 0.029,0.032 0.029,0.032 0,0 -34.262,14.876 -34.262,14.876 0,0 -0.149,-0.101 -0.149,-0.101 -6.989,-9.259 -11.025,-19.971 -11.081,-31.355 -0.057,-11.543 3.984,-22.42 11.063,-31.809 0,0 0.036,0.061 0.036,0.061"
       id="path186"
       style="fill:#d7eef4;fill-rule:evenodd;stroke:none" />
    <path
       d="m 22.133,289.333 c -7.179,-9.351 -11.334,-20.211 -11.391,-31.761 -0.057,-11.498 3.953,-22.335 10.98,-31.699 0,0 -0.162,-0.094 -0.162,-0.094 0,0 -35.188,-15.412 -35.188,-15.412 0,0 -0.137,-0.025 -0.137,-0.025 -10.481,13.991 -16.461,30.178 -16.376,47.35 0.085,17.149 6.209,33.282 16.803,47.198 0,0 0.218,-0.085 0.218,-0.085 0,0 35.051,-15.393 35.051,-15.393 0,0 0.202,-0.079 0.202,-0.079"
       id="path188"
       style="fill:#d7eef4;fill-rule:evenodd;stroke:none" />
    <path
       d="m 92.951,193.923 c -45.246,0 -82.484,28.647 -82.484,63.454 0,34.808 37.238,63.455 82.484,63.455"
       stroke-miterlimit="14.336"
       id="path190"
       style="fill:none;stroke:#000000;stroke-width:2px;stroke-miterlimit:14.336" />
    <line
       x1="55.967999"
       y1="240.951"
       x2="-13.889"
       y2="209.925"
       stroke-miterlimit="14.336"
       id="line192"
       style="fill:none;stroke:#000000;stroke-width:2px;stroke-miterlimit:14.336" />
    <path
       d="m 92.951,224.271 c -23.606,0 -43.035,14.946 -43.035,33.106 0,18.161 19.429,33.107 43.035,33.107"
       stroke-miterlimit="14.336"
       id="path194"
       style="fill:none;stroke:#000000;stroke-width:2px;stroke-miterlimit:14.336" />
    <line
       x1="-13.889"
       y1="304.82999"
       x2="56.048"
       y2="273.76801"
       stroke-miterlimit="14.336"
       id="line196"
       style="fill:none;stroke:#000000;stroke-width:2px;stroke-miterlimit:14.336" />
    <path
       d="m 92.951,352.658 c -67.672,0 -123.368,-43.221 -123.368,-95.281 0,-52.059 55.696,-94.905 123.368,-94.905 0,0 0,0 0,0 0,0 0,191.187 0,191.187"
       stroke-miterlimit="14.336"
       id="path198"
       style="fill:none;stroke:#000000;stroke-width:2px;stroke-miterlimit:14.336" />
    <path
       d="m -14.807,163.44 c 0,-8.7 -3.889,-16.268 -11.968,-23.288 0,0 -0.016,0.018 -0.016,0.018 -11.705,-10.316 -17.693,-23.111 -17.693,-37.799 0,0 0,-0.014 0,-0.014 0,-14.689 5.988,-27.483 17.693,-37.8 0,0 0.016,0.018 0.016,0.018 8.079,-7.019 11.968,-14.588 11.968,-23.288 0,0 26.707,-0.006 26.707,-0.006 0,10.248 10.56,19.003 26.12,21.656 0,0 -0.017,-0.027 -0.017,-0.027 23.121,3.759 40.151,14.562 46.125,29.261 8.789,21.626 -11.956,44.027 -45.952,49.619 0,0 0.024,0.001 0.024,0.001 -15.56,2.653 -26.121,11.407 -26.121,21.656 0,0 -26.886,-0.007 -26.886,-0.007"
       id="path200"
       style="fill:#d7eef4;fill-rule:evenodd;stroke:none" />
    <g
       transform="translate(27.113,38.822)"
       font-size="16px"
       id="g206"
       style="font-size:16px;font-family:Arial, sans-serif">
      <text
         x="44.98"
         y="16"
         font-weight="bold"
         id="text204"
         style="font-weight:bold;text-anchor:middle">right atrium</text>
    </g>
    <g
       transform="translate(202.515,40.507)"
       font-size="16px"
       id="g210"
       style="font-size:16px;font-family:Arial, sans-serif">
      <text
         x="38.98"
         y="16"
         font-weight="bold"
         id="text208"
         style="font-weight:bold;text-anchor:middle">left atrium</text>
    </g>
    <g
       transform="translate(227.143,170.449)"
       font-size="12px"
       id="g214"
       style="font-size:12px;font-family:Arial, sans-serif;fill:#646464" />
    <g
       transform="translate(227.143,228.949)"
       font-size="12px"
       id="g218"
       style="font-size:12px;font-family:Arial, sans-serif;fill:#646464" />
    <g
       transform="translate(59.143,170.449)"
       font-size="12px"
       id="g222"
       style="font-size:12px;font-family:Arial, sans-serif;fill:#646464" />
    <g
       transform="translate(59.143,248.207)"
       font-size="12px"
       id="g226"
       style="font-size:12px;font-family:Arial, sans-serif;fill:#646464" />
  </g>
</svg>
